<svg width="46" height="77" viewBox="0 0 46 77" fill="none" xmlns="http://www.w3.org/2000/svg">
<path d="M0 39.9836C0.986718 51.8256 10.9035 61.1307 23.0004 61.1307C35.0965 61.1307 45.014 51.8256 46 39.9836H38.6699C37.7125 47.7893 31.064 53.8351 23.0004 53.8351C14.936 53.8351 8.28904 47.7893 7.33163 39.9836H0Z" fill="black"/>
<path d="M22.9274 20.9081C22.9267 20.9081 10.3218 31.2351 10.3218 38.1195C10.3218 45.0039 15.9979 50.5849 23.0003 50.5849C30.002 50.5849 35.6789 45.0039 35.6789 38.1195C35.6789 31.2351 22.9274 20.9081 22.9274 20.9081ZM22.9672 29.7047C22.9672 29.7047 28.7598 34.3955 28.7598 37.5228C28.7598 40.65 26.1807 43.1845 23.0003 43.1845C19.8192 43.1845 17.2408 40.65 17.2408 37.5228C17.2408 34.3955 22.9672 29.7047 22.9672 29.7047Z" fill="black"/>
<path d="M23.0732 29.6765C23.0732 29.6765 35.6789 19.3496 35.6789 12.4652C35.6789 5.58071 30.002 0 23.0003 0C15.9979 0 10.3218 5.58071 10.3218 12.4652C10.3218 19.3496 23.0732 29.6765 23.0732 29.6765ZM23.0326 20.88C23.0326 20.88 17.2408 16.1892 17.2408 13.0619C17.2408 9.93459 19.8192 7.40016 23.0003 7.40016C26.1807 7.40016 28.7598 9.93459 28.7598 13.0619C28.7598 16.1892 23.0326 20.88 23.0326 20.88Z" fill="black"/>
<path d="M19.0212 55.9762H26.9796V72.4137H19.0212V55.9762Z" fill="black"/>
<path d="M35.6789 76.3929H10.3218L19.0467 68.4352H27.1073L35.6789 76.3929Z" fill="black"/>
</svg>
