<svg width="115" height="43" viewBox="0 0 115 43" fill="none" xmlns="http://www.w3.org/2000/svg">
<path fill-rule="evenodd" clip-rule="evenodd" d="M15.8618 14.2624C17.9083 12.2205 20.3782 9.28608 20.3782 7.01641C20.3782 3.14127 17.1359 0 13.1368 0C9.13728 0 5.89535 3.14127 5.89535 7.01641C5.89535 9.26699 8.35199 12.1712 10.4117 14.2107C8.36521 16.2525 5.89535 19.187 5.89535 21.4567C5.89535 25.3318 9.13728 28.4732 13.1368 28.4732C17.1359 28.4732 20.3782 25.3318 20.3782 21.4567C20.3782 19.2061 17.9215 16.3018 15.8618 14.2624ZM9.84722 7.35227C9.84722 9.11256 13.1552 11.7529 13.1552 11.7529C13.1552 11.7529 16.4264 9.11256 16.4264 7.35227C16.4264 5.59198 14.9533 4.1654 13.1368 4.1654C11.3199 4.1654 9.84722 5.59198 9.84722 7.35227ZM13.1179 16.7202C13.1179 16.7202 16.4264 19.3606 16.4264 21.1208C16.4264 22.8811 14.9533 24.3077 13.1368 24.3077C11.3199 24.3077 9.84722 22.8811 9.84722 21.1208C9.84722 19.3606 13.1179 16.7202 13.1179 16.7202ZM0 22.506C0.500351 28.4239 5.02104 33.2162 10.8641 34.2169V38.5339L5.89535 43H20.3782L15.4825 38.5208H15.4096V34.2169C21.2523 33.2161 25.7733 28.4238 26.2732 22.506H22.0866C21.5397 26.8997 17.7424 30.3027 13.1368 30.3027C8.53083 30.3027 4.73434 26.8997 4.18751 22.506H0ZM108.902 5.97778V20.2637H104.872V14.5291H99.9579V20.2637H95.9278V5.97778H99.9579V11.3477H104.872V5.97778H108.902ZM80.7366 9.34156C80.1472 10.4358 79.8525 11.6854 79.8525 13.0903C79.8525 14.5088 80.1472 15.7719 80.7366 16.8796C81.3398 17.9739 82.1896 18.8317 83.2863 19.4531C84.3829 20.061 85.644 20.365 87.0696 20.365C88.879 20.365 90.4006 19.8922 91.6343 18.9465C92.868 17.9874 93.663 16.6905 94.0194 15.0559H89.6809C89.4205 15.5963 89.0572 16.0083 88.5912 16.292C88.1388 16.5757 87.611 16.7175 87.0079 16.7175C86.0758 16.7175 85.3287 16.3933 84.7667 15.7449C84.2184 15.0829 83.9442 14.1981 83.9442 13.0903C83.9442 11.9961 84.2184 11.1248 84.7667 10.4763C85.3287 9.81437 86.0758 9.4834 87.0079 9.4834C87.611 9.4834 88.1388 9.62525 88.5912 9.90894C89.0572 10.1926 89.4205 10.6047 89.6809 11.145H94.0194C93.663 9.51042 92.868 8.2203 91.6343 7.27466C90.4006 6.31551 88.879 5.83594 87.0696 5.83594C85.644 5.83594 84.3829 6.14665 83.2863 6.76807C82.1896 7.37598 81.3398 8.23381 80.7366 9.34156ZM73.1113 9.15918V11.4895H77.7376V14.5088H73.1113V17.0823H78.3545V20.2637H69.0812V5.97778H78.3545V9.15918H73.1113ZM61.8465 11.4895V9.15918H67.0898V5.97778H57.8165V20.2637H67.0898V17.0823H61.8465V14.5088H66.4729V11.4895H61.8465ZM56.1974 10.7397C56.1974 11.6043 55.9918 12.3946 55.5805 13.1106C55.183 13.8131 54.573 14.3805 53.7506 14.8127C52.9418 15.2315 51.948 15.4409 50.7691 15.4409H48.7746V20.2637H44.7446V5.97778H50.7691C51.9343 5.97778 52.9212 6.18042 53.73 6.5857C54.5525 6.99097 55.1693 7.5516 55.5805 8.26758C55.9918 8.98356 56.1974 9.80762 56.1974 10.7397ZM50.3785 12.2798C51.5162 12.2798 52.0851 11.7664 52.0851 10.7397C52.0851 9.69955 51.5162 9.17945 50.3785 9.17945H48.7746V12.2798H50.3785ZM33.3099 19.2302C34.3928 20.0138 35.7773 20.4055 37.4633 20.4055C38.5737 20.4055 39.5332 20.2096 40.342 19.8179C41.1644 19.4261 41.7881 18.8925 42.2131 18.217C42.6517 17.5416 42.871 16.7783 42.871 15.9273C42.871 15.0897 42.6517 14.4007 42.2131 13.8604C41.7881 13.3065 41.2741 12.8809 40.6709 12.5837C40.0815 12.273 39.3276 11.9623 38.4092 11.6516C37.7923 11.4355 37.3263 11.2598 37.011 11.1248C36.6957 10.9762 36.4284 10.8073 36.2091 10.6182C36.0034 10.4155 35.9006 10.1791 35.9006 9.90894C35.9006 9.58472 35.9966 9.3348 36.1885 9.15918C36.3804 8.98356 36.6272 8.89575 36.9287 8.89575C37.3263 8.89575 37.6484 9.00383 37.8951 9.21997C38.1556 9.43612 38.2926 9.76034 38.3064 10.1926H42.686C42.6174 8.78768 42.076 7.7002 41.0616 6.93018C40.0609 6.14665 38.7176 5.75488 37.0315 5.75488C35.9897 5.75488 35.0576 5.92375 34.2351 6.26148C33.4127 6.5992 32.7684 7.09904 32.3024 7.76099C31.8363 8.40943 31.6033 9.19296 31.6033 10.1116C31.6033 11.0167 31.8157 11.7529 32.2407 12.3203C32.6793 12.8742 33.1865 13.2997 33.7622 13.5969C34.3517 13.8806 35.1193 14.1778 36.0651 14.4885C36.9561 14.7722 37.6004 15.0289 37.9979 15.2586C38.3955 15.4882 38.5942 15.8124 38.5942 16.2312C38.5942 16.5554 38.4708 16.8121 38.2241 17.0012C37.9911 17.1768 37.6895 17.2647 37.3194 17.2647C36.9082 17.2647 36.5723 17.1498 36.3119 16.9202C36.0514 16.6905 35.9006 16.3258 35.8595 15.8259H31.5621C31.6444 17.2984 32.227 18.4332 33.3099 19.2302ZM110.497 39.4016L107.618 34.133H107.187V39.4016H103.156V25.1157H109.51C110.675 25.1157 111.662 25.3183 112.471 25.7236C113.28 26.1154 113.89 26.6625 114.301 27.365C114.712 28.0539 114.918 28.8307 114.918 29.6953C114.918 30.668 114.644 31.5258 114.095 32.2688C113.561 32.9983 112.772 33.5184 111.731 33.8291L115 39.4016H110.497ZM107.187 31.4177H109.181C109.729 31.4177 110.141 31.2894 110.415 31.0327C110.689 30.776 110.826 30.4045 110.826 29.9182C110.826 29.4589 110.682 29.1009 110.394 28.8442C110.12 28.574 109.716 28.4389 109.181 28.4389H107.187V31.4177ZM95.9218 30.6274V28.2971H101.165V25.1157H91.8918V39.4016H101.165V36.2202H95.9218V33.6467H100.548V30.6274H95.9218ZM90.4007 25.1157V28.2768H86.5351V39.4016H82.505V28.2768H78.6806V25.1157H90.4007ZM68.0478 38.3682C69.1307 39.1517 70.5152 39.5434 72.2013 39.5434C73.3116 39.5434 74.2711 39.3476 75.0799 38.9558C75.9024 38.564 76.5261 38.0304 76.951 37.355C77.3896 36.6795 77.609 35.9162 77.609 35.0652C77.609 34.2276 77.3896 33.5386 76.951 32.9983C76.5261 32.4444 76.012 32.0189 75.4089 31.7217C74.8194 31.411 74.0655 31.1002 73.1471 30.7895C72.5302 30.5734 72.0642 30.3978 71.7489 30.2627C71.4336 30.1141 71.1663 29.9452 70.947 29.7561C70.7414 29.5535 70.6386 29.317 70.6386 29.0469C70.6386 28.7226 70.7345 28.4727 70.9264 28.2971C71.1183 28.1215 71.3651 28.0337 71.6666 28.0337C72.0642 28.0337 72.3863 28.1417 72.633 28.3579C72.8935 28.574 73.0306 28.8983 73.0443 29.3306H77.4239C77.3554 27.9256 76.8139 26.8381 75.7995 26.0681C74.7989 25.2846 73.4555 24.8928 71.7695 24.8928C70.7277 24.8928 69.7955 25.0617 68.9731 25.3994C68.1506 25.7371 67.5063 26.237 67.0403 26.8989C66.5742 27.5473 66.3412 28.3309 66.3412 29.2495C66.3412 30.1546 66.5536 30.8909 66.9786 31.4582C67.4172 32.0121 67.9244 32.4376 68.5002 32.7348C69.0896 33.0185 69.8572 33.3157 70.8031 33.6264C71.6941 33.9101 72.3383 34.1668 72.7359 34.3965C73.1334 34.6261 73.3321 34.9503 73.3321 35.3691C73.3321 35.6933 73.2088 35.95 72.962 36.1391C72.729 36.3148 72.4274 36.4026 72.0573 36.4026C71.6461 36.4026 71.3102 36.2877 71.0498 36.0581C70.7894 35.8284 70.6386 35.4637 70.5975 34.9639H66.3001C66.3823 36.4363 66.9649 37.5711 68.0478 38.3682ZM60.3807 37.0713H55.2403L54.459 39.4016H50.2233L55.5076 25.1157H60.1545L65.4183 39.4016H61.1621L60.3807 37.0713ZM59.3732 34.0317L57.8105 29.4116L56.2684 34.0317H59.3732ZM48.9162 39.4016V25.1157H44.0636L40.5064 34.3965L36.867 25.1157H31.9939V39.4016H36.024V31.4582L38.7793 39.4016H42.1514L44.8861 31.519V39.4016H48.9162Z" fill="url(#paint0_linear_5_70)"/>
<defs>
<linearGradient id="paint0_linear_5_70" x1="5.99715" y1="35.7429" x2="114.802" y2="34.8736" gradientUnits="userSpaceOnUse">
<stop stop-color="#FF6935"/>
<stop offset="0.422397" stop-color="#FF505B"/>
<stop offset="1" stop-color="#5DA6C5"/>
</linearGradient>
</defs>
</svg>
