<svg width="98" height="165" viewBox="0 0 98 165" fill="none" xmlns="http://www.w3.org/2000/svg">
<path d="M12 61.7138C13.523 79.9917 28.8293 94.3539 47.5006 94.3539C66.1707 94.3539 81.4782 79.9917 83 61.7138H71.6861C70.2084 73.7618 59.9465 83.0934 47.5006 83.0934C35.0535 83.0934 24.7939 73.7618 23.3162 61.7138H12Z" fill="url(#paint0_linear_133_8)"/>
<path d="M47.388 32.2713C47.388 32.2713 27.9314 48.2107 27.9314 58.8366C27.9314 69.4625 36.6923 78.0767 47.5005 78.0767C58.3075 78.0767 67.0695 69.4625 67.0695 58.8366C67.0695 48.2107 47.388 32.2713 47.388 32.2713ZM47.4494 45.8485C47.4494 45.8485 56.3901 53.0887 56.3901 57.9156C56.3901 62.7424 52.4093 66.6544 47.5005 66.6544C42.5905 66.6544 38.6108 62.7424 38.6108 57.9156C38.6108 53.0887 47.4494 45.8485 47.4494 45.8485Z" fill="url(#paint1_linear_133_8)"/>
<path d="M47.613 45.8051C47.613 45.8051 67.0695 29.8657 67.0695 19.2397C67.0695 8.6137 58.3075 0 47.5005 0C36.6923 0 27.9314 8.6137 27.9314 19.2397C27.9314 29.8657 47.613 45.8051 47.613 45.8051ZM47.5504 32.2279C47.5504 32.2279 38.6108 24.9876 38.6108 20.1607C38.6108 15.3338 42.5905 11.422 47.5005 11.422C52.4093 11.422 56.3901 15.3338 56.3901 20.1607C56.3901 24.9876 47.5504 32.2279 47.5504 32.2279Z" fill="url(#paint2_linear_133_8)"/>
<path d="M41.3589 86.398H53.6424V111.769H41.3589V86.398Z" fill="url(#paint3_linear_133_8)"/>
<path d="M67.0695 117.911H27.9314L41.3981 105.628H53.8395L67.0695 117.911Z" fill="url(#paint4_linear_133_8)"/>
<path d="M8.72799 138.168C6.75999 138.168 5.14399 137.704 3.87999 136.776C2.61599 135.832 1.93599 134.488 1.83999 132.744H6.85599C6.90399 133.336 7.07999 133.768 7.38399 134.04C7.68799 134.312 8.07999 134.448 8.55999 134.448C8.99199 134.448 9.34399 134.344 9.61599 134.136C9.90399 133.912 10.048 133.608 10.048 133.224C10.048 132.728 9.81599 132.344 9.35199 132.072C8.88799 131.8 8.13599 131.496 7.09599 131.16C5.99199 130.792 5.09599 130.44 4.40799 130.104C3.73599 129.752 3.14399 129.248 2.63199 128.592C2.13599 127.92 1.88799 127.048 1.88799 125.976C1.88799 124.888 2.15999 123.96 2.70399 123.192C3.24799 122.408 3.99999 121.816 4.95999 121.416C5.91999 121.016 7.00799 120.816 8.22399 120.816C10.192 120.816 11.76 121.28 12.928 122.208C14.112 123.12 14.744 124.408 14.824 126.072H9.71199C9.69599 125.56 9.53599 125.176 9.23199 124.92C8.94399 124.664 8.56799 124.536 8.10399 124.536C7.75199 124.536 7.46399 124.64 7.23999 124.848C7.01599 125.056 6.90399 125.352 6.90399 125.736C6.90399 126.056 7.02399 126.336 7.26399 126.576C7.51999 126.8 7.83199 127 8.19999 127.176C8.56799 127.336 9.11199 127.544 9.832 127.8C10.904 128.168 11.784 128.536 12.472 128.904C13.176 129.256 13.776 129.76 14.272 130.416C14.784 131.056 15.04 131.872 15.04 132.864C15.04 133.872 14.784 134.776 14.272 135.576C13.776 136.376 13.048 137.008 12.088 137.472C11.144 137.936 10.024 138.168 8.72799 138.168Z" fill="url(#paint5_linear_133_8)"/>
<path d="M30.5948 126.72C30.5948 127.744 30.3548 128.68 29.8748 129.528C29.4108 130.36 28.6988 131.032 27.7388 131.544C26.7948 132.04 25.6348 132.288 24.2588 132.288H21.9308V138H17.2268V121.08H24.2588C25.6188 121.08 26.7708 121.32 27.7148 121.8C28.6748 122.28 29.3948 122.944 29.8748 123.792C30.3548 124.64 30.5948 125.616 30.5948 126.72ZM23.8028 128.544C25.1308 128.544 25.7948 127.936 25.7948 126.72C25.7948 125.488 25.1308 124.872 23.8028 124.872H21.9308V128.544H23.8028Z" fill="url(#paint6_linear_133_8)"/>
<path d="M37.1886 124.848V127.608H42.5886V131.184H37.1886V134.232H43.3086V138H32.4846V121.08H43.3086V124.848H37.1886Z" fill="url(#paint7_linear_133_8)"/>
<path d="M50.3371 124.848V127.608H55.7371V131.184H50.3371V134.232H56.4571V138H45.6331V121.08H56.4571V124.848H50.3371Z" fill="url(#paint8_linear_133_8)"/>
<path d="M58.2055 129.504C58.2055 127.84 58.5495 126.36 59.2375 125.064C59.9415 123.752 60.9335 122.736 62.2135 122.016C63.4935 121.28 64.9655 120.912 66.6295 120.912C68.7415 120.912 70.5175 121.48 71.9575 122.616C73.3975 123.736 74.3255 125.264 74.7415 127.2H69.6775C69.3735 126.56 68.9495 126.072 68.4055 125.736C67.8775 125.4 67.2615 125.232 66.5575 125.232C65.4695 125.232 64.5975 125.624 63.9415 126.408C63.3015 127.176 62.9815 128.208 62.9815 129.504C62.9815 130.816 63.3015 131.864 63.9415 132.648C64.5975 133.416 65.4695 133.8 66.5575 133.8C67.2615 133.8 67.8775 133.632 68.4055 133.296C68.9495 132.96 69.3735 132.472 69.6775 131.832H74.7415C74.3255 133.768 73.3975 135.304 71.9575 136.44C70.5175 137.56 68.7415 138.12 66.6295 138.12C64.9655 138.12 63.4935 137.76 62.2135 137.04C60.9335 136.304 59.9415 135.288 59.2375 133.992C58.5495 132.68 58.2055 131.184 58.2055 129.504Z" fill="url(#paint9_linear_133_8)"/>
<path d="M92.113 121.08V138H87.409V131.208H81.673V138H76.969V121.08H81.673V127.44H87.409V121.08H92.113Z" fill="url(#paint10_linear_133_8)"/>
<path d="M20.096 147.08V164H15.392V154.664L12.2 164H8.26399L5.04799 154.592V164H0.343994V147.08H6.03199L10.28 158.072L14.432 147.08H20.096Z" fill="url(#paint11_linear_133_8)"/>
<path d="M33.4777 161.24H27.4777L26.5657 164H21.6217L27.7897 147.08H33.2137L39.3577 164H34.3897L33.4777 161.24ZM32.3017 157.64L30.4777 152.168L28.6777 157.64H32.3017Z" fill="url(#paint12_linear_133_8)"/>
<path d="M47.2749 164.168C45.3069 164.168 43.6909 163.704 42.4269 162.776C41.1629 161.832 40.4829 160.488 40.3869 158.744H45.4029C45.4509 159.336 45.6269 159.768 45.9309 160.04C46.2349 160.312 46.6269 160.448 47.1069 160.448C47.5389 160.448 47.8909 160.344 48.1629 160.136C48.4509 159.912 48.5949 159.608 48.5949 159.224C48.5949 158.728 48.3629 158.344 47.8989 158.072C47.4349 157.8 46.6829 157.496 45.6429 157.16C44.5389 156.792 43.6429 156.44 42.9549 156.104C42.2829 155.752 41.6909 155.248 41.1789 154.592C40.6829 153.92 40.4349 153.048 40.4349 151.976C40.4349 150.888 40.7069 149.96 41.2509 149.192C41.7949 148.408 42.5469 147.816 43.5069 147.416C44.4669 147.016 45.5549 146.816 46.7709 146.816C48.7389 146.816 50.3069 147.28 51.4749 148.208C52.6589 149.12 53.2909 150.408 53.3709 152.072H48.2589C48.2429 151.56 48.0829 151.176 47.7789 150.92C47.4909 150.664 47.1149 150.536 46.6509 150.536C46.2989 150.536 46.0109 150.64 45.7869 150.848C45.5629 151.056 45.4509 151.352 45.4509 151.736C45.4509 152.056 45.5709 152.336 45.8109 152.576C46.0669 152.8 46.3789 153 46.7469 153.176C47.1149 153.336 47.6589 153.544 48.3789 153.8C49.4509 154.168 50.3309 154.536 51.0189 154.904C51.7229 155.256 52.3229 155.76 52.8189 156.416C53.3309 157.056 53.5869 157.872 53.5869 158.864C53.5869 159.872 53.3309 160.776 52.8189 161.576C52.3229 162.376 51.5949 163.008 50.6349 163.472C49.6909 163.936 48.5709 164.168 47.2749 164.168Z" fill="url(#paint13_linear_133_8)"/>
<path d="M68.5177 147.08V150.824H64.0057V164H59.3017V150.824H54.8377V147.08H68.5177Z" fill="url(#paint14_linear_133_8)"/>
<path d="M74.9621 150.848V153.608H80.3621V157.184H74.9621V160.232H81.0821V164H70.2581V147.08H81.0821V150.848H74.9621Z" fill="url(#paint15_linear_133_8)"/>
<path d="M91.9745 164L88.6145 157.76H88.1105V164H83.4065V147.08H90.8225C92.1825 147.08 93.3345 147.32 94.2785 147.8C95.2225 148.264 95.9345 148.912 96.4145 149.744C96.8945 150.56 97.1345 151.48 97.1345 152.504C97.1345 153.656 96.8145 154.672 96.1745 155.552C95.5505 156.416 94.6305 157.032 93.4145 157.4L97.2305 164H91.9745ZM88.1105 154.544H90.4385C91.0785 154.544 91.5585 154.392 91.8785 154.088C92.1985 153.784 92.3585 153.344 92.3585 152.768C92.3585 152.224 92.1905 151.8 91.8545 151.496C91.5345 151.176 91.0625 151.016 90.4385 151.016H88.1105V154.544Z" fill="url(#paint16_linear_133_8)"/>
<defs>
<linearGradient id="paint0_linear_133_8" x1="18" y1="82" x2="69.5" y2="55.5" gradientUnits="userSpaceOnUse">
<stop stop-color="#FF6935"/>
<stop offset="0.495535" stop-color="#FF505B"/>
<stop offset="1" stop-color="#5DA6C5"/>
</linearGradient>
<linearGradient id="paint1_linear_133_8" x1="18" y1="82" x2="69.5" y2="55.5" gradientUnits="userSpaceOnUse">
<stop stop-color="#FF6935"/>
<stop offset="0.495535" stop-color="#FF505B"/>
<stop offset="1" stop-color="#5DA6C5"/>
</linearGradient>
<linearGradient id="paint2_linear_133_8" x1="18" y1="82" x2="69.5" y2="55.5" gradientUnits="userSpaceOnUse">
<stop stop-color="#FF6935"/>
<stop offset="0.495535" stop-color="#FF505B"/>
<stop offset="1" stop-color="#5DA6C5"/>
</linearGradient>
<linearGradient id="paint3_linear_133_8" x1="18" y1="82" x2="69.5" y2="55.5" gradientUnits="userSpaceOnUse">
<stop stop-color="#FF6935"/>
<stop offset="0.495535" stop-color="#FF505B"/>
<stop offset="1" stop-color="#5DA6C5"/>
</linearGradient>
<linearGradient id="paint4_linear_133_8" x1="18" y1="82" x2="69.5" y2="55.5" gradientUnits="userSpaceOnUse">
<stop stop-color="#FF6935"/>
<stop offset="0.495535" stop-color="#FF505B"/>
<stop offset="1" stop-color="#5DA6C5"/>
</linearGradient>
<linearGradient id="paint5_linear_133_8" x1="18" y1="82" x2="69.5" y2="55.5" gradientUnits="userSpaceOnUse">
<stop stop-color="#FF6935"/>
<stop offset="0.495535" stop-color="#FF505B"/>
<stop offset="1" stop-color="#5DA6C5"/>
</linearGradient>
<linearGradient id="paint6_linear_133_8" x1="18" y1="82" x2="69.5" y2="55.5" gradientUnits="userSpaceOnUse">
<stop stop-color="#FF6935"/>
<stop offset="0.495535" stop-color="#FF505B"/>
<stop offset="1" stop-color="#5DA6C5"/>
</linearGradient>
<linearGradient id="paint7_linear_133_8" x1="18" y1="82" x2="69.5" y2="55.5" gradientUnits="userSpaceOnUse">
<stop stop-color="#FF6935"/>
<stop offset="0.495535" stop-color="#FF505B"/>
<stop offset="1" stop-color="#5DA6C5"/>
</linearGradient>
<linearGradient id="paint8_linear_133_8" x1="18" y1="82" x2="69.5" y2="55.5" gradientUnits="userSpaceOnUse">
<stop stop-color="#FF6935"/>
<stop offset="0.495535" stop-color="#FF505B"/>
<stop offset="1" stop-color="#5DA6C5"/>
</linearGradient>
<linearGradient id="paint9_linear_133_8" x1="18" y1="82" x2="69.5" y2="55.5" gradientUnits="userSpaceOnUse">
<stop stop-color="#FF6935"/>
<stop offset="0.495535" stop-color="#FF505B"/>
<stop offset="1" stop-color="#5DA6C5"/>
</linearGradient>
<linearGradient id="paint10_linear_133_8" x1="18" y1="82" x2="69.5" y2="55.5" gradientUnits="userSpaceOnUse">
<stop stop-color="#FF6935"/>
<stop offset="0.495535" stop-color="#FF505B"/>
<stop offset="1" stop-color="#5DA6C5"/>
</linearGradient>
<linearGradient id="paint11_linear_133_8" x1="18" y1="82" x2="69.5" y2="55.5" gradientUnits="userSpaceOnUse">
<stop stop-color="#FF6935"/>
<stop offset="0.495535" stop-color="#FF505B"/>
<stop offset="1" stop-color="#5DA6C5"/>
</linearGradient>
<linearGradient id="paint12_linear_133_8" x1="18" y1="82" x2="69.5" y2="55.5" gradientUnits="userSpaceOnUse">
<stop stop-color="#FF6935"/>
<stop offset="0.495535" stop-color="#FF505B"/>
<stop offset="1" stop-color="#5DA6C5"/>
</linearGradient>
<linearGradient id="paint13_linear_133_8" x1="18" y1="82" x2="69.5" y2="55.5" gradientUnits="userSpaceOnUse">
<stop stop-color="#FF6935"/>
<stop offset="0.495535" stop-color="#FF505B"/>
<stop offset="1" stop-color="#5DA6C5"/>
</linearGradient>
<linearGradient id="paint14_linear_133_8" x1="18" y1="82" x2="69.5" y2="55.5" gradientUnits="userSpaceOnUse">
<stop stop-color="#FF6935"/>
<stop offset="0.495535" stop-color="#FF505B"/>
<stop offset="1" stop-color="#5DA6C5"/>
</linearGradient>
<linearGradient id="paint15_linear_133_8" x1="18" y1="82" x2="69.5" y2="55.5" gradientUnits="userSpaceOnUse">
<stop stop-color="#FF6935"/>
<stop offset="0.495535" stop-color="#FF505B"/>
<stop offset="1" stop-color="#5DA6C5"/>
</linearGradient>
<linearGradient id="paint16_linear_133_8" x1="18" y1="82" x2="69.5" y2="55.5" gradientUnits="userSpaceOnUse">
<stop stop-color="#FF6935"/>
<stop offset="0.495535" stop-color="#FF505B"/>
<stop offset="1" stop-color="#5DA6C5"/>
</linearGradient>
</defs>
</svg>
